<?xml version="1.0" encoding="utf-8"?>
<!-- Generator: Adobe Illustrator 15.0.0, SVG Export Plug-In . SVG Version: 6.00 Build 0)  -->
<!DOCTYPE svg PUBLIC "-//W3C//DTD SVG 1.1//EN" "http://www.w3.org/Graphics/SVG/1.1/DTD/svg11.dtd">
<svg version="1.1" id="Layer_1" xmlns="http://www.w3.org/2000/svg" xmlns:xlink="http://www.w3.org/1999/xlink" x="0px" y="0px"
	 width="9.992px" height="20px" viewBox="3.188 -3.001 9.992 20" enable-background="new 3.188 -3.001 9.992 20"
	 xml:space="preserve">
<g id="facebook">
	<g id="XMLID_7_">
		<path id="XMLID_284_" fill="#FFFFFF" d="M3.188,6.131h1.791V17h3.97V6.131h2.808l0.762-3.513H8.787c0,0-0.291-1.457,0.262-2.003
			c0.284-0.281,0.794-0.493,1.453-0.493c0.666,0,1.202,0.361,1.877,0.761l0.802-3.092c-1.238-0.351-2.023-0.792-3.314-0.792
			c-1.261,0-1.986,0.208-2.811,0.616C6.231-1.974,5.857-1.253,5.549-0.604c-0.304,0.649-0.46,1.443-0.46,2.765v0.457H3.248
			L3.188,6.131z"/>
	</g>
</g>
<g id="Layer_1_1_">
</g>
</svg>
