<?xml version="1.0" encoding="utf-8"?>
<!-- Generator: Adobe Illustrator 15.0.0, SVG Export Plug-In . SVG Version: 6.00 Build 0)  -->
<!DOCTYPE svg PUBLIC "-//W3C//DTD SVG 1.1//EN" "http://www.w3.org/Graphics/SVG/1.1/DTD/svg11.dtd">
<svg version="1.1" id="Layer_1" xmlns="http://www.w3.org/2000/svg" xmlns:xlink="http://www.w3.org/1999/xlink" x="0px" y="0px"
	 width="20px" height="20px" viewBox="-2 -2.988 20 20" enable-background="new -2 -2.988 20 20" xml:space="preserve">
<title>Glyph</title>
<path fill="#FFFFFF" d="M7.993,1.861c-2.836,0-5.135,2.295-5.135,5.126c0,2.832,2.299,5.126,5.135,5.126
	c2.836,0,5.135-2.295,5.135-5.126C13.128,4.157,10.829,1.861,7.993,1.861z M7.993,10.317c-1.842,0-3.336-1.489-3.336-3.33
	c0-1.839,1.494-3.33,3.336-3.33c1.843,0,3.336,1.491,3.336,3.33C11.329,8.828,9.836,10.317,7.993,10.317L7.993,10.317z"/>
<circle fill="#FFFFFF" cx="13.332" cy="1.672" r="1.196"/>
<path fill="#FFFFFF" d="M17.473,0.457c-0.521-1.34-1.582-2.399-2.924-2.918c-0.776-0.292-1.599-0.449-2.428-0.466
	C11.053-2.975,10.714-2.988,8-2.988c-2.713,0-3.058,0-4.121,0.061C3.049-2.91,2.228-2.753,1.451-2.461
	C0.109-1.943-0.952-0.883-1.472,0.457c-0.292,0.776-0.45,1.596-0.467,2.425C-1.987,3.949-2,4.286-2,6.995
	c0,2.708,0,3.053,0.061,4.114c0.018,0.827,0.175,1.648,0.467,2.424c0.52,1.34,1.581,2.399,2.923,2.919
	c0.775,0.302,1.597,0.471,2.429,0.498C4.948,16.998,5.287,17.012,8,17.012c2.714,0,3.058,0,4.121-0.062
	c0.829-0.017,1.651-0.174,2.428-0.465c1.342-0.518,2.403-1.577,2.924-2.918c0.292-0.775,0.449-1.596,0.466-2.425
	C17.986,10.076,18,9.737,18,7.028c0-2.708,0-3.053-0.062-4.113C17.926,2.075,17.769,1.244,17.473,0.457z M16.119,11.028
	c-0.005,0.638-0.122,1.271-0.346,1.869c-0.336,0.874-1.026,1.563-1.9,1.9c-0.594,0.219-1.222,0.335-1.854,0.344
	c-1.057,0.047-1.354,0.06-4.06,0.06s-2.984,0-4.06-0.06c-0.633-0.009-1.261-0.125-1.854-0.344c-0.877-0.335-1.57-1.025-1.908-1.9
	c-0.221-0.592-0.337-1.217-0.346-1.85c-0.046-1.053-0.061-1.352-0.061-4.053c0-2.702,0-2.979,0.061-4.053
	c0.006-0.639,0.123-1.271,0.346-1.871c0.337-0.874,1.031-1.564,1.908-1.897C2.639-1.047,3.267-1.163,3.9-1.171
	c1.055-0.047,1.353-0.061,4.06-0.061s2.984,0,4.06,0.061c0.632,0.008,1.26,0.125,1.854,0.345c0.874,0.336,1.564,1.025,1.9,1.897
	c0.221,0.593,0.338,1.219,0.346,1.851c0.048,1.053,0.062,1.351,0.062,4.053s0,2.992-0.047,4.054H16.119z"/>
</svg>
