<?xml version="1.0" encoding="utf-8"?>
<!-- Generator: Adobe Illustrator 15.0.0, SVG Export Plug-In . SVG Version: 6.00 Build 0)  -->
<!DOCTYPE svg PUBLIC "-//W3C//DTD SVG 1.1//EN" "http://www.w3.org/Graphics/SVG/1.1/DTD/svg11.dtd">
<svg version="1.1" id="Layer_1" xmlns="http://www.w3.org/2000/svg" xmlns:xlink="http://www.w3.org/1999/xlink" x="0px" y="0px"
	 width="11.237px" height="18px" viewBox="2.381 -2 11.237 18" enable-background="new 2.381 -2 11.237 18" xml:space="preserve">
<g id="odnoklassniki">
	<g id="XMLID_8_">
		<g id="XMLID_3_">
			<path id="XMLID_476_" fill="#FFFFFF" d="M7.079,10.683c-1.45-0.149-2.76-0.489-3.879-1.337C3.06,9.241,2.917,9.143,2.789,9.024
				c-0.49-0.45-0.538-0.97-0.149-1.504C2.97,7.064,3.528,6.939,4.107,7.201C4.22,7.254,4.322,7.318,4.427,7.386
				c2.088,1.378,4.955,1.417,7.053,0.06c0.203-0.152,0.43-0.277,0.687-0.34c0.498-0.126,0.967,0.054,1.235,0.471
				c0.304,0.483,0.298,0.952-0.078,1.325c-0.576,0.572-1.276,0.984-2.053,1.273c-0.73,0.274-1.533,0.412-2.327,0.502
				c0.119,0.125,0.176,0.188,0.254,0.263c1.077,1.038,2.16,2.076,3.231,3.117c0.366,0.355,0.447,0.797,0.244,1.211
				c-0.221,0.454-0.716,0.752-1.196,0.717c-0.308-0.019-0.549-0.167-0.758-0.37c-0.817-0.785-1.644-1.561-2.443-2.36
				c-0.229-0.232-0.34-0.193-0.549,0.012c-0.817,0.812-1.65,1.611-2.482,2.405c-0.376,0.352-0.826,0.418-1.259,0.215
				c-0.463-0.215-0.758-0.672-0.737-1.128C3.265,14.448,3.421,14.212,3.644,14c1.063-1.021,2.131-2.05,3.192-3.076
				C6.915,10.859,6.977,10.787,7.079,10.683z"/>
			<path id="XMLID_152_" fill="#FFFFFF" d="M7.962,7.115C5.375,7.106,3.251,5.038,3.265,2.547C3.281,0.026,5.405-2.006,8.018-2
				c2.62,0.006,4.72,2.068,4.708,4.613C12.715,5.104,10.581,7.123,7.962,7.115z M10.316,2.555C10.309,1.318,9.287,0.33,8.001,0.33
				c-1.295,0-2.33,1.002-2.318,2.252c0.009,1.235,1.041,2.211,2.33,2.205C9.296,4.781,10.319,3.794,10.316,2.555z"/>
		</g>
	</g>
</g>
<g id="Layer_1_1_">
</g>
</svg>
