<?xml version="1.0" encoding="utf-8"?>
<!-- Generator: Adobe Illustrator 15.0.0, SVG Export Plug-In . SVG Version: 6.00 Build 0)  -->
<!DOCTYPE svg PUBLIC "-//W3C//DTD SVG 1.1//EN" "http://www.w3.org/Graphics/SVG/1.1/DTD/svg11.dtd">
<svg version="1.1" id="Layer_1" xmlns="http://www.w3.org/2000/svg" xmlns:xlink="http://www.w3.org/1999/xlink" x="0px" y="0px"
	 width="20px" height="20px" viewBox="2 2 20 20" enable-background="new 2 2 20 20" xml:space="preserve">
<path fill="#FFFFFF" d="M7.419,19.293C7.419,20.788,6.206,22,4.71,22C3.213,22,2,20.788,2,19.293c0-1.494,1.213-2.706,2.71-2.706
	C6.206,16.588,7.419,17.799,7.419,19.293z M2,8.817v4.009c5.042,0.051,9.133,4.138,9.185,9.174h4.014
	C15.147,14.742,9.268,8.869,2,8.817z M2,6.01C10.817,6.048,17.96,13.172,17.986,22H22C21.976,10.974,13.037,2.038,2,2V6.01z"/>
</svg>
