<?xml version="1.0" encoding="utf-8"?>
<!-- Generator: Adobe Illustrator 15.0.0, SVG Export Plug-In . SVG Version: 6.00 Build 0)  -->
<!DOCTYPE svg PUBLIC "-//W3C//DTD SVG 1.1//EN" "http://www.w3.org/Graphics/SVG/1.1/DTD/svg11.dtd">
<svg version="1.1" id="Layer_1" xmlns="http://www.w3.org/2000/svg" xmlns:xlink="http://www.w3.org/1999/xlink" x="0px" y="0px"
	 width="19.685px" height="16px" viewBox="-1.66 -0.837 19.685 16" enable-background="new -1.66 -0.837 19.685 16"
	 xml:space="preserve">
<g id="twitter">
	<g id="XMLID_10_">
		<path id="XMLID_292_" fill="#FFFFFF" d="M16.014,3.146c0.008,0.174,0.011,0.348,0.011,0.523c0,5.337-4.063,11.494-11.492,11.494
			c-2.283,0-4.402-0.67-6.192-1.815c0.317,0.036,0.636,0.055,0.963,0.055c1.895,0,3.634-0.649,5.015-1.731
			c-1.763-0.031-3.257-1.198-3.769-2.8c0.246,0.05,0.499,0.071,0.76,0.071c0.364,0,0.726-0.048,1.064-0.143
			C0.523,8.43-0.871,6.794-0.871,4.841c0-0.017,0-0.035,0-0.051c0.544,0.304,1.167,0.483,1.832,0.51
			c-1.087-0.729-1.795-1.966-1.795-3.368c0-0.742,0.198-1.436,0.543-2.027C1.703,2.344,4.678,3.953,8.035,4.12
			C7.966,3.827,7.93,3.516,7.93,3.199c0-2.23,1.808-4.036,4.04-4.036c1.164,0,2.21,0.488,2.948,1.272
			c0.924-0.177,1.784-0.515,2.563-0.979c-0.299,0.945-0.942,1.737-1.773,2.233c0.82-0.095,1.597-0.317,2.317-0.639
			C17.486,1.866,16.8,2.576,16.014,3.146z"/>
	</g>
</g>
<g id="Layer_1_1_">
</g>
</svg>
