<?xml version="1.0" encoding="utf-8"?>
<!-- Generator: Adobe Illustrator 15.0.0, SVG Export Plug-In . SVG Version: 6.00 Build 0)  -->
<!DOCTYPE svg PUBLIC "-//W3C//DTD SVG 1.1//EN" "http://www.w3.org/Graphics/SVG/1.1/DTD/svg11.dtd">
<svg version="1.1" id="Layer_1" xmlns="http://www.w3.org/2000/svg" xmlns:xlink="http://www.w3.org/1999/xlink" x="0px" y="0px"
	 width="34px" height="18.796px" viewBox="-8.954 -2.392 34 18.796" enable-background="new -8.954 -2.392 34 18.796"
	 xml:space="preserve">
<path fill="#FFFFFF" d="M24.711,14.581c-0.071-0.071-0.071-0.143-0.143-0.21c-0.567-1.066-1.702-2.272-3.407-3.835l0,0l0,0l0,0l0,0
	c-0.784-0.713-1.209-1.209-1.423-1.42c-0.354-0.428-0.425-0.925-0.282-1.423c0.144-0.355,0.707-1.136,1.563-2.272
	c0.496-0.639,0.85-1.065,1.135-1.491c2.062-2.629,2.91-4.333,2.629-5.043l-0.071-0.141c-0.071-0.071-0.282-0.214-0.567-0.285
	c-0.285-0.069-0.643-0.069-1.138-0.069h-5.111c-0.071,0-0.214,0-0.357,0c-0.143,0-0.214,0.069-0.214,0.069l-0.071,0.071
	l-0.071,0.071c-0.071,0-0.143,0.071-0.214,0.212c-0.071,0.071-0.139,0.214-0.139,0.285c-0.567,1.42-1.21,2.699-1.92,3.906
	c-0.424,0.71-0.852,1.35-1.209,1.846c-0.353,0.498-0.635,0.924-0.92,1.136c-0.285,0.214-0.499,0.426-0.643,0.569
	C11.927,6.7,11.784,6.77,11.713,6.77c-0.14,0-0.211-0.069-0.282-0.069c-0.143-0.071-0.285-0.214-0.428-0.426
	c-0.071-0.214-0.143-0.426-0.214-0.64c0-0.284-0.071-0.496-0.071-0.71c0-0.212,0-0.498,0-0.853s0-0.567,0-0.71
	c0-0.426,0-0.924,0-1.419c0-0.498,0-0.924,0.071-1.208c0-0.285,0-0.64,0-0.924c0-0.355,0-0.569-0.071-0.781
	c-0.071-0.214-0.071-0.355-0.214-0.569c-0.068-0.141-0.211-0.284-0.354-0.426c-0.139-0.069-0.354-0.141-0.567-0.212
	c-0.64-0.143-1.421-0.214-2.415-0.214c-2.203,0-3.622,0.143-4.263,0.426C2.623-1.823,2.41-1.681,2.268-1.468
	C2.055-1.185,2.055-1.113,2.196-1.042c0.709,0.071,1.207,0.355,1.493,0.71L3.83-0.118c0.071,0.141,0.143,0.426,0.284,0.781
	c0.071,0.355,0.143,0.781,0.143,1.279c0.071,0.851,0.071,1.562,0,2.129C4.185,4.64,4.113,5.138,4.113,5.493
	C4.044,5.848,3.973,6.131,3.901,6.274C3.758,6.486,3.689,6.629,3.689,6.629C3.689,6.7,3.618,6.7,3.618,6.7
	C3.475,6.77,3.332,6.77,3.12,6.77c-0.143,0-0.355-0.069-0.569-0.212c-0.212-0.143-0.496-0.355-0.71-0.639
	C1.558,5.634,1.274,5.208,0.989,4.711C0.705,4.214,0.35,3.574-0.005,2.935L-0.29,2.438C-0.431,2.083-0.716,1.656-1,1.018
	c-0.283-0.641-0.567-1.208-0.781-1.776c-0.072-0.212-0.212-0.426-0.426-0.567l-0.072-0.071C-2.348-1.468-2.419-1.468-2.562-1.54
	c-0.141-0.069-0.284-0.069-0.426-0.141h-4.83c-0.496,0-0.853,0.141-0.994,0.355l-0.071,0.071c0,0.07-0.071,0.141-0.071,0.284
	s0.071,0.284,0.071,0.498c0.71,1.634,1.491,3.196,2.344,4.687c0.852,1.491,1.562,2.698,2.202,3.622
	c0.639,0.924,1.208,1.773,1.846,2.629c0.638,0.777,1.064,1.349,1.279,1.563c0.212,0.214,0.355,0.425,0.496,0.496l0.426,0.424
	c0.285,0.285,0.711,0.643,1.279,0.999c0.569,0.354,1.136,0.777,1.848,1.135c0.639,0.356,1.419,0.709,2.343,0.92
	c0.922,0.214,1.775,0.356,2.556,0.285h2.062c0.425,0,0.707-0.143,0.921-0.354l0.071-0.071c0.071-0.071,0.071-0.143,0.143-0.285
	c0.071-0.139,0.071-0.281,0.071-0.495c0-0.5,0-0.925,0.143-1.349c0.071-0.428,0.214-0.714,0.285-0.928
	c0.143-0.21,0.214-0.353,0.354-0.492c0.143-0.143,0.214-0.214,0.281-0.285c0.071,0,0.071-0.071,0.144-0.071
	c0.285-0.071,0.642,0,0.998,0.285c0.354,0.282,0.706,0.563,1.063,0.991c0.356,0.429,0.71,0.853,1.205,1.349
	c0.5,0.5,0.856,0.856,1.209,1.138l0.354,0.214c0.214,0.14,0.57,0.282,0.928,0.354c0.353,0.143,0.706,0.143,0.991,0.071l4.544-0.071
	c0.429,0,0.785-0.071,1.067-0.214c0.281-0.14,0.424-0.282,0.424-0.496c0.071-0.139,0.071-0.353,0-0.567
	C24.85,14.866,24.782,14.724,24.711,14.581z"/>
</svg>
