<?xml version="1.0" encoding="utf-8"?>
<!-- Generator: Adobe Illustrator 15.0.0, SVG Export Plug-In . SVG Version: 6.00 Build 0)  -->
<!DOCTYPE svg PUBLIC "-//W3C//DTD SVG 1.1//EN" "http://www.w3.org/Graphics/SVG/1.1/DTD/svg11.dtd">
<svg version="1.1" id="Layer_1" xmlns="http://www.w3.org/2000/svg" xmlns:xlink="http://www.w3.org/1999/xlink" x="0px" y="0px"
	 width="20.994px" height="14px" viewBox="-2.499 0 20.994 14" enable-background="new -2.499 0 20.994 14" xml:space="preserve">
<g id="youtube">
	<g id="XMLID_9_">
		<path id="XMLID_469_" fill="#FFFFFF" d="M17.681,1.201C16.92,0.344,15.519,0,12.85,0H3.146C0.415,0-1.008,0.372-1.766,1.278
			c-0.733,0.885-0.733,2.193-0.733,4v3.445c0,3.496,0.875,5.277,5.646,5.277h9.704c2.316,0,3.604-0.31,4.433-1.064
			c0.851-0.767,1.212-2.032,1.212-4.213V5.278C18.498,3.369,18.439,2.058,17.681,1.201z M10.981,7.474L6.574,9.658
			C6.481,9.704,6.37,9.729,6.264,9.729c-0.124,0-0.247-0.031-0.353-0.09C5.708,9.521,5.583,9.311,5.583,9.088V4.74
			c0-0.223,0.124-0.434,0.328-0.551c0.201-0.118,0.455-0.124,0.662-0.021l4.407,2.168c0.224,0.111,0.365,0.331,0.365,0.572
			C11.346,7.146,11.208,7.363,10.981,7.474z"/>
	</g>
</g>
<g id="Layer_1_1_">
</g>
</svg>
